<mxfile host="app.diagrams.net" modified="2024-06-13T17:46:19.109Z" agent="Mozilla/5.0 (Windows NT 10.0; Win64; x64) AppleWebKit/537.36 (KHTML, like Gecko) Chrome/125.0.0.0 Safari/537.36" version="24.5.4" etag="-HnJcjlYxKMw-W2RGhgU" type="github">
  <diagram name="Страница — 1" id="eRbK9Pc3_7S0oLnpqSS8">
    <mxGraphModel>
      <root>
        <mxCell id="0" />
        <mxCell id="1" parent="0" />
      </root>
    </mxGraphModel>
  </diagram>
</mxfile>
